<svg width="184" height="53" viewBox="0 0 184 53" fill="none" xmlns="http://www.w3.org/2000/svg">
<g filter="url(#filter0_b)">
<path d="M22.1562 5.46875H41.4375V26.875L22.1562 5.46875ZM1.75 18.0312H1.5625C1.5625 13.7396 2.72917 10.5729 5.0625 8.53125C7.39583 6.48958 10.9896 5.46875 15.8438 5.46875L41.4375 36.5312C41.4375 40.6562 40.3229 43.6042 38.0938 45.375C35.9271 47.1042 32.3854 47.9688 27.4688 47.9688L1.75 18.0312ZM1.65625 26.4688L20.2188 48H1.65625V26.4688Z" fill="#1A202C"/>
</g>
<g filter="url(#filter1_b)">
<path d="M62.6895 37.4043C62.6895 38.7402 62.5137 39.959 62.1621 41.0605C61.8105 42.1621 61.2773 43.1113 60.5625 43.9082C59.8477 44.7051 58.9512 45.3203 57.873 45.7539C56.7949 46.1875 55.5352 46.4043 54.0938 46.4043C52.6992 46.4043 51.4863 46.2109 50.4551 45.8242C49.4238 45.4375 48.5684 44.875 47.8887 44.1367C47.209 43.3984 46.7051 42.4902 46.377 41.4121C46.0488 40.334 45.8848 39.1035 45.8848 37.7207C45.8848 36.3848 46.0605 35.166 46.4121 34.0645C46.7754 32.9512 47.3145 32.002 48.0293 31.2168C48.7441 30.4199 49.6348 29.8047 50.7012 29.3711C51.7793 28.9375 53.0391 28.7207 54.4805 28.7207C55.8867 28.7207 57.1055 28.9141 58.1367 29.3008C59.168 29.6758 60.0176 30.2324 60.6855 30.9707C61.3652 31.709 61.8691 32.6172 62.1973 33.6953C62.5254 34.7734 62.6895 36.0098 62.6895 37.4043ZM58.1367 37.5801C58.1367 36.8066 58.0723 36.0977 57.9434 35.4531C57.8262 34.7969 57.6211 34.2285 57.3281 33.748C57.0352 33.2676 56.6426 32.8926 56.1504 32.623C55.6699 32.3535 55.0605 32.2188 54.3223 32.2188C53.666 32.2188 53.0918 32.3418 52.5996 32.5879C52.1074 32.8223 51.7031 33.1738 51.3867 33.6426C51.0703 34.0996 50.8301 34.6562 50.666 35.3125C50.5137 35.957 50.4375 36.6953 50.4375 37.5273C50.4375 38.3008 50.502 39.0156 50.6309 39.6719C50.7598 40.3164 50.9648 40.8789 51.2461 41.3594C51.5391 41.8398 51.9316 42.2148 52.4238 42.4844C52.916 42.7422 53.5254 42.8711 54.252 42.8711C54.9199 42.8711 55.5 42.7539 55.9922 42.5195C56.4844 42.2734 56.8887 41.9219 57.2051 41.4648C57.5215 41.0078 57.7559 40.457 57.9082 39.8125C58.0605 39.1562 58.1367 38.4121 58.1367 37.5801ZM76.2773 31.1816C76.2773 31.6035 76.2656 31.9492 76.2422 32.2188C76.2188 32.4883 76.1836 32.6992 76.1367 32.8516C76.0898 33.0039 76.0254 33.1094 75.9434 33.168C75.873 33.2266 75.7793 33.2559 75.6621 33.2559C75.5684 33.2559 75.4629 33.2383 75.3457 33.2031C75.2285 33.1562 75.0938 33.1094 74.9414 33.0625C74.8008 33.0156 74.6426 32.9746 74.4668 32.9395C74.291 32.8926 74.0977 32.8691 73.8867 32.8691C73.6406 32.8691 73.3945 32.9219 73.1484 33.0273C72.9023 33.1211 72.6445 33.2734 72.375 33.4844C72.1172 33.6953 71.8418 33.9766 71.5488 34.3281C71.2676 34.6797 70.9629 35.1133 70.6348 35.6289V45.4023C70.6348 45.5195 70.5996 45.625 70.5293 45.7188C70.459 45.8008 70.3359 45.8711 70.1602 45.9297C69.9961 45.9883 69.7734 46.0293 69.4922 46.0527C69.2109 46.0879 68.8535 46.1055 68.4199 46.1055C67.9863 46.1055 67.6289 46.0879 67.3477 46.0527C67.0664 46.0293 66.8379 45.9883 66.6621 45.9297C66.498 45.8711 66.3809 45.8008 66.3105 45.7188C66.2402 45.625 66.2051 45.5195 66.2051 45.4023V29.7227C66.2051 29.6055 66.2344 29.5059 66.293 29.4238C66.3516 29.3301 66.457 29.2539 66.6094 29.1953C66.7617 29.1367 66.9551 29.0957 67.1895 29.0723C67.4355 29.0371 67.7402 29.0195 68.1035 29.0195C68.4785 29.0195 68.7891 29.0371 69.0352 29.0723C69.2812 29.0957 69.4688 29.1367 69.5977 29.1953C69.7383 29.2539 69.8379 29.3301 69.8965 29.4238C69.9551 29.5059 69.9844 29.6055 69.9844 29.7227V31.6738C70.3945 31.0879 70.7812 30.6074 71.1445 30.2324C71.5078 29.8457 71.8535 29.541 72.1816 29.3184C72.5098 29.0957 72.8379 28.9434 73.166 28.8613C73.4941 28.7676 73.8223 28.7207 74.1504 28.7207C74.3027 28.7207 74.4668 28.7324 74.6426 28.7559C74.8184 28.7676 75 28.7969 75.1875 28.8438C75.375 28.8789 75.5391 28.9258 75.6797 28.9844C75.8203 29.0312 75.9199 29.084 75.9785 29.1426C76.0488 29.2012 76.0957 29.2656 76.1191 29.3359C76.1543 29.4062 76.1836 29.5059 76.207 29.6348C76.2305 29.752 76.248 29.9336 76.2598 30.1797C76.2715 30.4258 76.2773 30.7598 76.2773 31.1816ZM92.7129 30.8125C92.7129 31.375 92.6484 31.791 92.5195 32.0605C92.3906 32.3301 92.2324 32.4648 92.0449 32.4648H90.1992C90.457 32.7461 90.6387 33.0684 90.7441 33.4316C90.8613 33.7832 90.9199 34.1523 90.9199 34.5391C90.9199 35.4531 90.7676 36.2676 90.4629 36.9824C90.1582 37.6855 89.7188 38.2832 89.1445 38.7754C88.582 39.2559 87.8965 39.625 87.0879 39.8828C86.291 40.1289 85.4004 40.252 84.416 40.252C83.9121 40.252 83.4316 40.1934 82.9746 40.0762C82.5176 39.9473 82.166 39.8008 81.9199 39.6367C81.7793 39.7891 81.6504 39.9707 81.5332 40.1816C81.4277 40.3926 81.375 40.627 81.375 40.8848C81.375 41.2246 81.5215 41.5059 81.8145 41.7285C82.1191 41.9395 82.541 42.0566 83.0801 42.0801L86.8945 42.2207C87.7852 42.2559 88.5762 42.3848 89.2676 42.6074C89.9707 42.8184 90.5566 43.123 91.0254 43.5215C91.5059 43.9082 91.8691 44.377 92.1152 44.9277C92.373 45.4785 92.502 46.1055 92.502 46.8086C92.502 47.582 92.332 48.3086 91.9922 48.9883C91.6523 49.6797 91.1426 50.2773 90.4629 50.7812C89.7832 51.2852 88.9277 51.6836 87.8965 51.9766C86.877 52.2695 85.6816 52.416 84.3105 52.416C82.9746 52.416 81.832 52.3105 80.8828 52.0996C79.9453 51.8887 79.1719 51.5957 78.5625 51.2207C77.9648 50.8457 77.5254 50.3945 77.2441 49.8672C76.9746 49.3516 76.8398 48.7832 76.8398 48.1621C76.8398 47.7754 76.8867 47.4062 76.9805 47.0547C77.0859 46.7031 77.2324 46.3633 77.4199 46.0352C77.6191 45.7188 77.8594 45.4141 78.1406 45.1211C78.4219 44.8281 78.7441 44.5469 79.1074 44.2773C78.6035 44.0078 78.2109 43.6445 77.9297 43.1875C77.6602 42.7188 77.5254 42.209 77.5254 41.6582C77.5254 40.9668 77.6836 40.3398 78 39.7773C78.3164 39.2031 78.7266 38.6875 79.2305 38.2305C78.8203 37.8203 78.4922 37.3281 78.2461 36.7539C78 36.1797 77.877 35.4648 77.877 34.6094C77.877 33.6953 78.0352 32.8809 78.3516 32.166C78.6797 31.4395 79.1309 30.8301 79.7051 30.3379C80.2793 29.834 80.9648 29.4531 81.7617 29.1953C82.5586 28.9258 83.4375 28.791 84.3984 28.791C84.8906 28.791 85.3594 28.8203 85.8047 28.8789C86.2617 28.9375 86.6836 29.0195 87.0703 29.125H92.0449C92.2441 29.125 92.4023 29.2539 92.5195 29.5117C92.6484 29.7695 92.7129 30.2031 92.7129 30.8125ZM87.0352 34.5215C87.0352 33.6777 86.8008 33.0215 86.332 32.5527C85.8633 32.084 85.2012 31.8496 84.3457 31.8496C83.9121 31.8496 83.5312 31.9258 83.2031 32.0781C82.875 32.2188 82.5996 32.418 82.377 32.6758C82.166 32.9219 82.0078 33.2148 81.9023 33.5547C81.7969 33.8828 81.7441 34.2285 81.7441 34.5918C81.7441 35.3887 81.9785 36.0215 82.4473 36.4902C82.916 36.9473 83.5664 37.1758 84.3984 37.1758C84.8438 37.1758 85.2305 37.1055 85.5586 36.9648C85.8867 36.8242 86.1562 36.6309 86.3672 36.3848C86.5898 36.1387 86.7539 35.8574 86.8594 35.541C86.9766 35.2129 87.0352 34.873 87.0352 34.5215ZM88.0723 47.0371C88.0723 46.5098 87.8613 46.1055 87.4395 45.8242C87.0176 45.543 86.4375 45.3906 85.6992 45.3672L82.5527 45.2793C82.248 45.502 82.002 45.7188 81.8145 45.9297C81.6387 46.1289 81.4922 46.3223 81.375 46.5098C81.2695 46.6973 81.1992 46.8789 81.1641 47.0547C81.1289 47.2305 81.1113 47.4121 81.1113 47.5996C81.1113 48.1855 81.4043 48.6309 81.9902 48.9355C82.5879 49.2402 83.4258 49.3926 84.5039 49.3926C85.1719 49.3926 85.7344 49.3223 86.1914 49.1816C86.6484 49.0527 87.0176 48.877 87.2988 48.6543C87.5801 48.4316 87.7793 48.1797 87.8965 47.8984C88.0137 47.6289 88.0723 47.3418 88.0723 47.0371ZM108.393 45.4551C108.393 45.6191 108.334 45.748 108.217 45.8418C108.1 45.9355 107.912 46 107.654 46.0352C107.408 46.082 107.039 46.1055 106.547 46.1055C106.02 46.1055 105.633 46.082 105.387 46.0352C105.152 46 104.982 45.9355 104.877 45.8418C104.783 45.748 104.736 45.6191 104.736 45.4551V44.207C104.092 44.8984 103.354 45.4375 102.521 45.8242C101.701 46.2109 100.787 46.4043 99.7793 46.4043C98.9473 46.4043 98.1797 46.293 97.4766 46.0703C96.7852 45.8594 96.1816 45.543 95.666 45.1211C95.1621 44.6875 94.7695 44.1543 94.4883 43.5215C94.207 42.8887 94.0664 42.1504 94.0664 41.3066C94.0664 40.3926 94.2422 39.6016 94.5938 38.9336C94.957 38.2539 95.4902 37.6973 96.1934 37.2637C96.9082 36.8184 97.793 36.4902 98.8477 36.2793C99.9023 36.0684 101.127 35.9629 102.521 35.9629H104.051V35.0137C104.051 34.5215 103.998 34.0938 103.893 33.7305C103.799 33.3555 103.635 33.0449 103.4 32.7988C103.178 32.5527 102.873 32.3711 102.486 32.2539C102.111 32.1367 101.643 32.0781 101.08 32.0781C100.342 32.0781 99.6797 32.1602 99.0938 32.3242C98.5195 32.4883 98.0098 32.6699 97.5645 32.8691C97.1191 33.0684 96.7441 33.25 96.4395 33.4141C96.1465 33.5781 95.9062 33.6602 95.7188 33.6602C95.5898 33.6602 95.4727 33.6191 95.3672 33.5371C95.2734 33.4551 95.1914 33.3379 95.1211 33.1855C95.0625 33.0332 95.0156 32.8457 94.9805 32.623C94.9453 32.4004 94.9277 32.1543 94.9277 31.8848C94.9277 31.5215 94.957 31.2344 95.0156 31.0234C95.0742 30.8125 95.1855 30.625 95.3496 30.4609C95.5137 30.2852 95.8008 30.0977 96.2109 29.8984C96.6211 29.6875 97.1016 29.4941 97.6523 29.3184C98.2031 29.1426 98.8008 29.002 99.4453 28.8965C100.102 28.7793 100.775 28.7207 101.467 28.7207C102.697 28.7207 103.746 28.8438 104.613 29.0898C105.492 29.3242 106.213 29.6934 106.775 30.1973C107.338 30.6895 107.748 31.3281 108.006 32.1133C108.264 32.8984 108.393 33.8301 108.393 34.9082V45.4551ZM104.051 38.7402H102.363C101.648 38.7402 101.039 38.793 100.535 38.8984C100.031 39.0039 99.6211 39.1621 99.3047 39.373C98.9883 39.584 98.7539 39.8418 98.6016 40.1465C98.4609 40.4395 98.3906 40.7793 98.3906 41.166C98.3906 41.8223 98.5957 42.3379 99.0059 42.7129C99.4277 43.0879 100.008 43.2754 100.746 43.2754C101.367 43.2754 101.936 43.1172 102.451 42.8008C102.979 42.4844 103.512 42.0215 104.051 41.4121V38.7402ZM127.799 45.4023C127.799 45.5195 127.764 45.625 127.693 45.7188C127.623 45.8008 127.506 45.8711 127.342 45.9297C127.178 45.9883 126.949 46.0293 126.656 46.0527C126.375 46.0879 126.023 46.1055 125.602 46.1055C125.168 46.1055 124.805 46.0879 124.512 46.0527C124.23 46.0293 124.008 45.9883 123.844 45.9297C123.68 45.8711 123.562 45.8008 123.492 45.7188C123.422 45.625 123.387 45.5195 123.387 45.4023V36.4551C123.387 35.6934 123.328 35.0957 123.211 34.6621C123.105 34.2285 122.947 33.8594 122.736 33.5547C122.525 33.2383 122.25 32.998 121.91 32.834C121.582 32.6582 121.195 32.5703 120.75 32.5703C120.188 32.5703 119.619 32.7754 119.045 33.1855C118.471 33.5957 117.873 34.1934 117.252 34.9785V45.4023C117.252 45.5195 117.217 45.625 117.146 45.7188C117.076 45.8008 116.953 45.8711 116.777 45.9297C116.613 45.9883 116.391 46.0293 116.109 46.0527C115.828 46.0879 115.471 46.1055 115.037 46.1055C114.604 46.1055 114.246 46.0879 113.965 46.0527C113.684 46.0293 113.455 45.9883 113.279 45.9297C113.115 45.8711 112.998 45.8008 112.928 45.7188C112.857 45.625 112.822 45.5195 112.822 45.4023V29.7227C112.822 29.6055 112.852 29.5059 112.91 29.4238C112.969 29.3301 113.074 29.2539 113.227 29.1953C113.379 29.1367 113.572 29.0957 113.807 29.0723C114.053 29.0371 114.357 29.0195 114.721 29.0195C115.096 29.0195 115.406 29.0371 115.652 29.0723C115.898 29.0957 116.086 29.1367 116.215 29.1953C116.355 29.2539 116.455 29.3301 116.514 29.4238C116.572 29.5059 116.602 29.6055 116.602 29.7227V31.5332C117.469 30.5957 118.348 29.8926 119.238 29.4238C120.141 28.9551 121.078 28.7207 122.051 28.7207C123.117 28.7207 124.014 28.8965 124.74 29.248C125.479 29.5996 126.07 30.0801 126.516 30.6895C126.973 31.2871 127.301 31.9902 127.5 32.7988C127.699 33.6074 127.799 34.5801 127.799 35.7168V45.4023ZM136.588 45.4023C136.588 45.5195 136.553 45.625 136.482 45.7188C136.412 45.8008 136.289 45.8711 136.113 45.9297C135.949 45.9883 135.727 46.0293 135.445 46.0527C135.164 46.0879 134.807 46.1055 134.373 46.1055C133.939 46.1055 133.582 46.0879 133.301 46.0527C133.02 46.0293 132.791 45.9883 132.615 45.9297C132.451 45.8711 132.334 45.8008 132.264 45.7188C132.193 45.625 132.158 45.5195 132.158 45.4023V29.7578C132.158 29.6406 132.193 29.541 132.264 29.459C132.334 29.3652 132.451 29.2891 132.615 29.2305C132.791 29.1602 133.02 29.1074 133.301 29.0723C133.582 29.0371 133.939 29.0195 134.373 29.0195C134.807 29.0195 135.164 29.0371 135.445 29.0723C135.727 29.1074 135.949 29.1602 136.113 29.2305C136.289 29.2891 136.412 29.3652 136.482 29.459C136.553 29.541 136.588 29.6406 136.588 29.7578V45.4023ZM136.922 24.4141C136.922 25.3047 136.74 25.9199 136.377 26.2598C136.014 26.5996 135.34 26.7695 134.355 26.7695C133.359 26.7695 132.686 26.6055 132.334 26.2773C131.994 25.9492 131.824 25.3574 131.824 24.502C131.824 23.6113 132 22.9961 132.352 22.6562C132.715 22.3047 133.395 22.1289 134.391 22.1289C135.375 22.1289 136.043 22.2988 136.395 22.6387C136.746 22.9668 136.922 23.5586 136.922 24.4141ZM151.986 44.1895C151.986 44.5293 151.969 44.8223 151.934 45.0684C151.898 45.3027 151.852 45.4902 151.793 45.6309C151.734 45.7715 151.658 45.8711 151.564 45.9297C151.471 45.9766 151.365 46 151.248 46H141C140.684 46 140.438 45.8945 140.262 45.6836C140.098 45.4727 140.016 45.127 140.016 44.6465V43.8379C140.016 43.627 140.021 43.4395 140.033 43.2754C140.057 43.0996 140.092 42.9355 140.139 42.7832C140.197 42.6191 140.268 42.4551 140.35 42.291C140.443 42.127 140.561 41.9453 140.701 41.7461L146.572 32.6758H141.018C140.795 32.6758 140.613 32.5352 140.473 32.2539C140.344 31.9727 140.279 31.5215 140.279 30.9004C140.279 30.5605 140.291 30.2793 140.314 30.0566C140.35 29.8223 140.396 29.6406 140.455 29.5117C140.514 29.3711 140.59 29.2715 140.684 29.2129C140.777 29.1543 140.889 29.125 141.018 29.125H150.598C150.762 29.125 150.902 29.1426 151.02 29.1777C151.137 29.2129 151.23 29.2773 151.301 29.3711C151.383 29.4648 151.441 29.5938 151.477 29.7578C151.523 29.9219 151.547 30.127 151.547 30.373V31.2344C151.547 31.4688 151.535 31.6797 151.512 31.8672C151.488 32.043 151.453 32.2129 151.406 32.377C151.359 32.541 151.289 32.7051 151.195 32.8691C151.113 33.0332 151.014 33.209 150.896 33.3965L145.061 42.4492H151.248C151.354 42.4492 151.453 42.4727 151.547 42.5195C151.641 42.5664 151.717 42.6543 151.775 42.7832C151.846 42.9121 151.898 43.0938 151.934 43.3281C151.969 43.5508 151.986 43.8379 151.986 44.1895ZM169.143 37.1055C169.143 37.6445 169.02 38.043 168.773 38.3008C168.539 38.5586 168.211 38.6875 167.789 38.6875H158.244C158.244 39.3555 158.32 39.9648 158.473 40.5156C158.637 41.0547 158.889 41.5176 159.229 41.9043C159.58 42.2793 160.025 42.5664 160.564 42.7656C161.115 42.9648 161.771 43.0645 162.533 43.0645C163.307 43.0645 163.986 43.0117 164.572 42.9062C165.158 42.7891 165.662 42.666 166.084 42.5371C166.518 42.3965 166.875 42.2734 167.156 42.168C167.438 42.0508 167.666 41.9922 167.842 41.9922C167.947 41.9922 168.035 42.0156 168.105 42.0625C168.176 42.0977 168.234 42.168 168.281 42.2734C168.328 42.3789 168.357 42.5312 168.369 42.7305C168.393 42.918 168.404 43.1582 168.404 43.4512C168.404 43.709 168.398 43.9316 168.387 44.1191C168.375 44.2949 168.357 44.4473 168.334 44.5762C168.311 44.7051 168.275 44.8164 168.229 44.9102C168.182 44.9922 168.117 45.0742 168.035 45.1562C167.965 45.2383 167.76 45.3496 167.42 45.4902C167.08 45.6309 166.646 45.7715 166.119 45.9121C165.592 46.041 164.988 46.1523 164.309 46.2461C163.629 46.3516 162.902 46.4043 162.129 46.4043C160.734 46.4043 159.51 46.2285 158.455 45.877C157.412 45.5254 156.539 44.9922 155.836 44.2773C155.133 43.5625 154.605 42.6602 154.254 41.5703C153.914 40.4805 153.744 39.2031 153.744 37.7383C153.744 36.3438 153.926 35.0898 154.289 33.9766C154.652 32.8516 155.18 31.9023 155.871 31.1289C156.562 30.3438 157.4 29.7461 158.385 29.3359C159.381 28.9258 160.5 28.7207 161.742 28.7207C163.055 28.7207 164.174 28.9141 165.1 29.3008C166.037 29.6875 166.805 30.2266 167.402 30.918C168 31.5977 168.439 32.4062 168.721 33.3438C169.002 34.2812 169.143 35.3008 169.143 36.4023V37.1055ZM164.854 35.8398C164.889 34.5977 164.637 33.625 164.098 32.9219C163.57 32.207 162.75 31.8496 161.637 31.8496C161.074 31.8496 160.582 31.9551 160.16 32.166C159.75 32.377 159.404 32.6641 159.123 33.0273C158.854 33.3789 158.643 33.8008 158.49 34.293C158.35 34.7734 158.268 35.2891 158.244 35.8398H164.854ZM182.871 31.1816C182.871 31.6035 182.859 31.9492 182.836 32.2188C182.812 32.4883 182.777 32.6992 182.73 32.8516C182.684 33.0039 182.619 33.1094 182.537 33.168C182.467 33.2266 182.373 33.2559 182.256 33.2559C182.162 33.2559 182.057 33.2383 181.939 33.2031C181.822 33.1562 181.688 33.1094 181.535 33.0625C181.395 33.0156 181.236 32.9746 181.061 32.9395C180.885 32.8926 180.691 32.8691 180.48 32.8691C180.234 32.8691 179.988 32.9219 179.742 33.0273C179.496 33.1211 179.238 33.2734 178.969 33.4844C178.711 33.6953 178.436 33.9766 178.143 34.3281C177.861 34.6797 177.557 35.1133 177.229 35.6289V45.4023C177.229 45.5195 177.193 45.625 177.123 45.7188C177.053 45.8008 176.93 45.8711 176.754 45.9297C176.59 45.9883 176.367 46.0293 176.086 46.0527C175.805 46.0879 175.447 46.1055 175.014 46.1055C174.58 46.1055 174.223 46.0879 173.941 46.0527C173.66 46.0293 173.432 45.9883 173.256 45.9297C173.092 45.8711 172.975 45.8008 172.904 45.7188C172.834 45.625 172.799 45.5195 172.799 45.4023V29.7227C172.799 29.6055 172.828 29.5059 172.887 29.4238C172.945 29.3301 173.051 29.2539 173.203 29.1953C173.355 29.1367 173.549 29.0957 173.783 29.0723C174.029 29.0371 174.334 29.0195 174.697 29.0195C175.072 29.0195 175.383 29.0371 175.629 29.0723C175.875 29.0957 176.062 29.1367 176.191 29.1953C176.332 29.2539 176.432 29.3301 176.49 29.4238C176.549 29.5059 176.578 29.6055 176.578 29.7227V31.6738C176.988 31.0879 177.375 30.6074 177.738 30.2324C178.102 29.8457 178.447 29.541 178.775 29.3184C179.104 29.0957 179.432 28.9434 179.76 28.8613C180.088 28.7676 180.416 28.7207 180.744 28.7207C180.896 28.7207 181.061 28.7324 181.236 28.7559C181.412 28.7676 181.594 28.7969 181.781 28.8438C181.969 28.8789 182.133 28.9258 182.273 28.9844C182.414 29.0312 182.514 29.084 182.572 29.1426C182.643 29.2012 182.689 29.2656 182.713 29.3359C182.748 29.4062 182.777 29.5059 182.801 29.6348C182.824 29.752 182.842 29.9336 182.854 30.1797C182.865 30.4258 182.871 30.7598 182.871 31.1816Z" fill="#1A202C"/>
</g>
<defs>
<filter id="filter0_b" x="-2.4375" y="1.46875" width="47.875" height="50.5312" filterUnits="userSpaceOnUse" color-interpolation-filters="sRGB">
<feFlood flood-opacity="0" result="BackgroundImageFix"/>
<feGaussianBlur in="BackgroundImage" stdDeviation="2"/>
<feComposite in2="SourceAlpha" operator="in" result="effect1_backgroundBlur"/>
<feBlend mode="normal" in="SourceGraphic" in2="effect1_backgroundBlur" result="shape"/>
</filter>
<filter id="filter1_b" x="41.8848" y="18.1289" width="144.986" height="38.2871" filterUnits="userSpaceOnUse" color-interpolation-filters="sRGB">
<feFlood flood-opacity="0" result="BackgroundImageFix"/>
<feGaussianBlur in="BackgroundImage" stdDeviation="2"/>
<feComposite in2="SourceAlpha" operator="in" result="effect1_backgroundBlur"/>
<feBlend mode="normal" in="SourceGraphic" in2="effect1_backgroundBlur" result="shape"/>
</filter>
</defs>
</svg>
