<svg width="141" height="24" viewBox="0 0 141 24" fill="none" xmlns="http://www.w3.org/2000/svg">
<g filter="url(#filter0_b)">
<path d="M12.5112 0.0761719H23.3569V12.1172L12.5112 0.0761719ZM1.03265 7.14258H0.927185C0.927185 4.72852 1.58344 2.94727 2.89594 1.79883C4.20844 0.650391 6.22992 0.0761719 8.96039 0.0761719L23.3569 17.5488C23.3569 19.8691 22.7299 21.5273 21.476 22.5234C20.2573 23.4961 18.2651 23.9824 15.4995 23.9824L1.03265 7.14258ZM0.979919 11.8887L11.4213 24H0.979919V11.8887ZM40.3894 0.0761719H41.6902C45.1706 0.0761719 47.7722 0.914063 49.4948 2.58984C51.0769 4.125 51.8679 6.29883 51.8679 9.11133C51.8679 11.6074 51.0476 13.6172 49.407 15.1406C47.6609 16.7578 45.2527 17.5664 42.1823 17.5664H40.3894V0.0761719ZM27.7683 0.0761719H37.2253V23.9648H27.7683V0.0761719ZM68.9355 0.0761719H70.3066C74.6543 0.0761719 77.5254 2.01562 78.9199 5.89453C79.4824 7.48828 79.7637 9.32227 79.7637 11.3965C79.7637 14.8887 79.0898 17.7656 77.7422 20.0273C76.1484 22.6758 73.6699 24 70.3066 24H68.9355V0.0761719ZM64.6992 24C60.375 24 57.5098 21.8086 56.1035 17.4258C55.5293 15.6445 55.2422 13.6348 55.2422 11.3965C55.2422 6.83789 56.5078 3.62109 59.0391 1.74609C60.5273 0.632813 62.4141 0.0761719 64.6992 0.0761719H66.0703V24H64.6992ZM104.847 0.0761719H112.722V10.0078H110.753C109.464 10.0078 108.515 9.87305 107.906 9.60352C107.296 9.32227 106.816 9.01172 106.464 8.67188C106.124 8.32031 105.831 7.86328 105.585 7.30078C105.093 6.15234 104.847 4.55859 104.847 2.51953V0.0761719ZM93.4739 0.0761719H102.931V24H93.4739V0.0761719ZM83.6302 0.0761719H91.5052V2.51953C91.5052 5.53125 90.9602 7.58203 89.8704 8.67188C88.9798 9.5625 87.5559 10.0078 85.5989 10.0078H83.6302V0.0761719ZM117.169 19.377C117.169 18.3105 117.614 17.1738 118.504 15.9668L119.225 15.0176L131.917 0.0761719H140.53V5.13867C140.53 6.41602 139.821 7.93359 138.403 9.69141L125.465 24H117.169V19.377ZM117.169 3.16992C117.169 1.6582 117.356 0.626953 117.731 0.0761719H128.489L119.454 9.69141H118.926C117.754 9.01172 117.169 6.83789 117.169 3.16992ZM140.53 20.8887C140.53 22.4238 140.354 23.4609 140.002 24H129.403L138.79 13.8398C139.762 14.3906 140.325 15.7031 140.477 17.7773C140.524 18.4219 140.547 19.1016 140.547 19.8164L140.53 20.8887Z" fill="#1A202C"/>
</g>
<defs>
<filter id="filter0_b" x="-3.07275" y="-3.92383" width="147.62" height="31.9238" filterUnits="userSpaceOnUse" color-interpolation-filters="sRGB">
<feFlood flood-opacity="0" result="BackgroundImageFix"/>
<feGaussianBlur in="BackgroundImage" stdDeviation="2"/>
<feComposite in2="SourceAlpha" operator="in" result="effect1_backgroundBlur"/>
<feBlend mode="normal" in="SourceGraphic" in2="effect1_backgroundBlur" result="shape"/>
</filter>
</defs>
</svg>
