<svg width="178" height="54" viewBox="0 0 178 54" fill="none" xmlns="http://www.w3.org/2000/svg">
<g filter="url(#filter0_b)">
<path d="M22.1562 5.46875H41.4375V26.875L22.1562 5.46875ZM1.75 18.0312H1.5625C1.5625 13.7396 2.72917 10.5729 5.0625 8.53125C7.39583 6.48958 10.9896 5.46875 15.8438 5.46875L41.4375 36.5312C41.4375 40.6562 40.3229 43.6042 38.0938 45.375C35.9271 47.1042 32.3854 47.9688 27.4688 47.9688L1.75 18.0312ZM1.65625 26.4688L20.2188 48H1.65625V26.4688Z" fill="#1A202C"/>
</g>
<g filter="url(#filter1_b)">
<path d="M71.7402 46.4023C71.7402 46.5195 71.7051 46.625 71.6348 46.7188C71.5645 46.8008 71.4473 46.8711 71.2832 46.9297C71.1191 46.9883 70.8965 47.0293 70.6152 47.0527C70.334 47.0879 69.9766 47.1055 69.543 47.1055C69.0977 47.1055 68.7344 47.0879 68.4531 47.0527C68.1719 47.0293 67.9434 46.9883 67.7676 46.9297C67.6035 46.8711 67.4863 46.8008 67.416 46.7188C67.3574 46.625 67.3281 46.5195 67.3281 46.4023V37.1035C67.3281 36.5762 67.2754 36.0957 67.1699 35.6621C67.0762 35.2285 66.9238 34.8594 66.7129 34.5547C66.5137 34.2383 66.2559 33.998 65.9395 33.834C65.6348 33.6582 65.2656 33.5703 64.832 33.5703C64.3047 33.5703 63.7715 33.7754 63.2324 34.1855C62.6934 34.5957 62.1074 35.1934 61.4746 35.9785V46.4023C61.4746 46.5195 61.4395 46.625 61.3691 46.7188C61.2988 46.8008 61.1758 46.8711 61 46.9297C60.8359 46.9883 60.6133 47.0293 60.332 47.0527C60.0508 47.0879 59.6992 47.1055 59.2773 47.1055C58.8438 47.1055 58.4863 47.0879 58.2051 47.0527C57.9238 47.0293 57.6953 46.9883 57.5195 46.9297C57.3555 46.8711 57.2383 46.8008 57.168 46.7188C57.0977 46.625 57.0625 46.5195 57.0625 46.4023V37.1035C57.0625 36.5762 57.0098 36.0957 56.9043 35.6621C56.8105 35.2285 56.6641 34.8594 56.4648 34.5547C56.2656 34.2383 56.0078 33.998 55.6914 33.834C55.375 33.6582 55.0059 33.5703 54.584 33.5703C54.0449 33.5703 53.5059 33.7754 52.9668 34.1855C52.4277 34.5957 51.8477 35.1934 51.2266 35.9785V46.4023C51.2266 46.5195 51.1914 46.625 51.1211 46.7188C51.0508 46.8008 50.9277 46.8711 50.752 46.9297C50.5879 46.9883 50.3652 47.0293 50.084 47.0527C49.8027 47.0879 49.4453 47.1055 49.0117 47.1055C48.5781 47.1055 48.2207 47.0879 47.9395 47.0527C47.6582 47.0293 47.4297 46.9883 47.2539 46.9297C47.0898 46.8711 46.9727 46.8008 46.9023 46.7188C46.832 46.625 46.7969 46.5195 46.7969 46.4023V30.7227C46.7969 30.6055 46.8262 30.5059 46.8848 30.4238C46.9434 30.3301 47.0488 30.2539 47.2012 30.1953C47.3535 30.1367 47.5469 30.0957 47.7812 30.0723C48.0273 30.0371 48.332 30.0195 48.6953 30.0195C49.0703 30.0195 49.3809 30.0371 49.627 30.0723C49.873 30.0957 50.0605 30.1367 50.1895 30.1953C50.3301 30.2539 50.4297 30.3301 50.4883 30.4238C50.5469 30.5059 50.5762 30.6055 50.5762 30.7227V32.5332C51.4434 31.5957 52.3047 30.8926 53.1602 30.4238C54.0273 29.9551 54.9297 29.7207 55.8672 29.7207C56.5117 29.7207 57.0918 29.791 57.6074 29.9316C58.123 30.0605 58.5801 30.2539 58.9785 30.5117C59.3887 30.7578 59.7402 31.0566 60.0332 31.4082C60.3262 31.7598 60.5723 32.1523 60.7715 32.5859C61.2402 32.082 61.6973 31.6484 62.1426 31.2852C62.5996 30.9219 63.0449 30.6289 63.4785 30.4062C63.9238 30.1719 64.3633 30.002 64.7969 29.8965C65.2422 29.7793 65.6934 29.7207 66.1504 29.7207C67.1934 29.7207 68.0723 29.8965 68.7871 30.248C69.502 30.5996 70.0762 31.0801 70.5098 31.6895C70.9551 32.2871 71.2715 32.9902 71.459 33.7988C71.6465 34.6074 71.7402 35.4629 71.7402 36.3652V46.4023ZM89.4414 46.4551C89.4414 46.6191 89.3828 46.748 89.2656 46.8418C89.1484 46.9355 88.9609 47 88.7031 47.0352C88.457 47.082 88.0879 47.1055 87.5957 47.1055C87.0684 47.1055 86.6816 47.082 86.4355 47.0352C86.2012 47 86.0312 46.9355 85.9258 46.8418C85.832 46.748 85.7852 46.6191 85.7852 46.4551V45.207C85.1406 45.8984 84.4023 46.4375 83.5703 46.8242C82.75 47.2109 81.8359 47.4043 80.8281 47.4043C79.9961 47.4043 79.2285 47.293 78.5254 47.0703C77.834 46.8594 77.2305 46.543 76.7148 46.1211C76.2109 45.6875 75.8184 45.1543 75.5371 44.5215C75.2559 43.8887 75.1152 43.1504 75.1152 42.3066C75.1152 41.3926 75.291 40.6016 75.6426 39.9336C76.0059 39.2539 76.5391 38.6973 77.2422 38.2637C77.957 37.8184 78.8418 37.4902 79.8965 37.2793C80.9512 37.0684 82.1758 36.9629 83.5703 36.9629H85.0996V36.0137C85.0996 35.5215 85.0469 35.0938 84.9414 34.7305C84.8477 34.3555 84.6836 34.0449 84.4492 33.7988C84.2266 33.5527 83.9219 33.3711 83.5352 33.2539C83.1602 33.1367 82.6914 33.0781 82.1289 33.0781C81.3906 33.0781 80.7285 33.1602 80.1426 33.3242C79.5684 33.4883 79.0586 33.6699 78.6133 33.8691C78.168 34.0684 77.793 34.25 77.4883 34.4141C77.1953 34.5781 76.9551 34.6602 76.7676 34.6602C76.6387 34.6602 76.5215 34.6191 76.416 34.5371C76.3223 34.4551 76.2402 34.3379 76.1699 34.1855C76.1113 34.0332 76.0645 33.8457 76.0293 33.623C75.9941 33.4004 75.9766 33.1543 75.9766 32.8848C75.9766 32.5215 76.0059 32.2344 76.0645 32.0234C76.123 31.8125 76.2344 31.625 76.3984 31.4609C76.5625 31.2852 76.8496 31.0977 77.2598 30.8984C77.6699 30.6875 78.1504 30.4941 78.7012 30.3184C79.252 30.1426 79.8496 30.002 80.4941 29.8965C81.1504 29.7793 81.8242 29.7207 82.5156 29.7207C83.7461 29.7207 84.7949 29.8438 85.6621 30.0898C86.541 30.3242 87.2617 30.6934 87.8242 31.1973C88.3867 31.6895 88.7969 32.3281 89.0547 33.1133C89.3125 33.8984 89.4414 34.8301 89.4414 35.9082V46.4551ZM85.0996 39.7402H83.4121C82.6973 39.7402 82.0879 39.793 81.584 39.8984C81.0801 40.0039 80.6699 40.1621 80.3535 40.373C80.0371 40.584 79.8027 40.8418 79.6504 41.1465C79.5098 41.4395 79.4395 41.7793 79.4395 42.166C79.4395 42.8223 79.6445 43.3379 80.0547 43.7129C80.4766 44.0879 81.0566 44.2754 81.7949 44.2754C82.416 44.2754 82.9844 44.1172 83.5 43.8008C84.0273 43.4844 84.5605 43.0215 85.0996 42.4121V39.7402ZM108.848 46.4023C108.848 46.5195 108.812 46.625 108.742 46.7188C108.672 46.8008 108.555 46.8711 108.391 46.9297C108.227 46.9883 107.998 47.0293 107.705 47.0527C107.424 47.0879 107.072 47.1055 106.65 47.1055C106.217 47.1055 105.854 47.0879 105.561 47.0527C105.279 47.0293 105.057 46.9883 104.893 46.9297C104.729 46.8711 104.611 46.8008 104.541 46.7188C104.471 46.625 104.436 46.5195 104.436 46.4023V37.4551C104.436 36.6934 104.377 36.0957 104.26 35.6621C104.154 35.2285 103.996 34.8594 103.785 34.5547C103.574 34.2383 103.299 33.998 102.959 33.834C102.631 33.6582 102.244 33.5703 101.799 33.5703C101.236 33.5703 100.668 33.7754 100.094 34.1855C99.5195 34.5957 98.9219 35.1934 98.3008 35.9785V46.4023C98.3008 46.5195 98.2656 46.625 98.1953 46.7188C98.125 46.8008 98.002 46.8711 97.8262 46.9297C97.6621 46.9883 97.4395 47.0293 97.1582 47.0527C96.877 47.0879 96.5195 47.1055 96.0859 47.1055C95.6523 47.1055 95.2949 47.0879 95.0137 47.0527C94.7324 47.0293 94.5039 46.9883 94.3281 46.9297C94.1641 46.8711 94.0469 46.8008 93.9766 46.7188C93.9062 46.625 93.8711 46.5195 93.8711 46.4023V30.7227C93.8711 30.6055 93.9004 30.5059 93.959 30.4238C94.0176 30.3301 94.123 30.2539 94.2754 30.1953C94.4277 30.1367 94.6211 30.0957 94.8555 30.0723C95.1016 30.0371 95.4062 30.0195 95.7695 30.0195C96.1445 30.0195 96.4551 30.0371 96.7012 30.0723C96.9473 30.0957 97.1348 30.1367 97.2637 30.1953C97.4043 30.2539 97.5039 30.3301 97.5625 30.4238C97.6211 30.5059 97.6504 30.6055 97.6504 30.7227V32.5332C98.5176 31.5957 99.3965 30.8926 100.287 30.4238C101.189 29.9551 102.127 29.7207 103.1 29.7207C104.166 29.7207 105.062 29.8965 105.789 30.248C106.527 30.5996 107.119 31.0801 107.564 31.6895C108.021 32.2871 108.35 32.9902 108.549 33.7988C108.748 34.6074 108.848 35.5801 108.848 36.7168V46.4023ZM126.566 46.4551C126.566 46.6191 126.508 46.748 126.391 46.8418C126.273 46.9355 126.086 47 125.828 47.0352C125.582 47.082 125.213 47.1055 124.721 47.1055C124.193 47.1055 123.807 47.082 123.561 47.0352C123.326 47 123.156 46.9355 123.051 46.8418C122.957 46.748 122.91 46.6191 122.91 46.4551V45.207C122.266 45.8984 121.527 46.4375 120.695 46.8242C119.875 47.2109 118.961 47.4043 117.953 47.4043C117.121 47.4043 116.354 47.293 115.65 47.0703C114.959 46.8594 114.355 46.543 113.84 46.1211C113.336 45.6875 112.943 45.1543 112.662 44.5215C112.381 43.8887 112.24 43.1504 112.24 42.3066C112.24 41.3926 112.416 40.6016 112.768 39.9336C113.131 39.2539 113.664 38.6973 114.367 38.2637C115.082 37.8184 115.967 37.4902 117.021 37.2793C118.076 37.0684 119.301 36.9629 120.695 36.9629H122.225V36.0137C122.225 35.5215 122.172 35.0938 122.066 34.7305C121.973 34.3555 121.809 34.0449 121.574 33.7988C121.352 33.5527 121.047 33.3711 120.66 33.2539C120.285 33.1367 119.816 33.0781 119.254 33.0781C118.516 33.0781 117.854 33.1602 117.268 33.3242C116.693 33.4883 116.184 33.6699 115.738 33.8691C115.293 34.0684 114.918 34.25 114.613 34.4141C114.32 34.5781 114.08 34.6602 113.893 34.6602C113.764 34.6602 113.646 34.6191 113.541 34.5371C113.447 34.4551 113.365 34.3379 113.295 34.1855C113.236 34.0332 113.189 33.8457 113.154 33.623C113.119 33.4004 113.102 33.1543 113.102 32.8848C113.102 32.5215 113.131 32.2344 113.189 32.0234C113.248 31.8125 113.359 31.625 113.523 31.4609C113.688 31.2852 113.975 31.0977 114.385 30.8984C114.795 30.6875 115.275 30.4941 115.826 30.3184C116.377 30.1426 116.975 30.002 117.619 29.8965C118.275 29.7793 118.949 29.7207 119.641 29.7207C120.871 29.7207 121.92 29.8438 122.787 30.0898C123.666 30.3242 124.387 30.6934 124.949 31.1973C125.512 31.6895 125.922 32.3281 126.18 33.1133C126.438 33.8984 126.566 34.8301 126.566 35.9082V46.4551ZM122.225 39.7402H120.537C119.822 39.7402 119.213 39.793 118.709 39.8984C118.205 40.0039 117.795 40.1621 117.479 40.373C117.162 40.584 116.928 40.8418 116.775 41.1465C116.635 41.4395 116.564 41.7793 116.564 42.166C116.564 42.8223 116.77 43.3379 117.18 43.7129C117.602 44.0879 118.182 44.2754 118.92 44.2754C119.541 44.2754 120.109 44.1172 120.625 43.8008C121.152 43.4844 121.686 43.0215 122.225 42.4121V39.7402ZM145.129 31.8125C145.129 32.375 145.064 32.791 144.936 33.0605C144.807 33.3301 144.648 33.4648 144.461 33.4648H142.615C142.873 33.7461 143.055 34.0684 143.16 34.4316C143.277 34.7832 143.336 35.1523 143.336 35.5391C143.336 36.4531 143.184 37.2676 142.879 37.9824C142.574 38.6855 142.135 39.2832 141.561 39.7754C140.998 40.2559 140.312 40.625 139.504 40.8828C138.707 41.1289 137.816 41.252 136.832 41.252C136.328 41.252 135.848 41.1934 135.391 41.0762C134.934 40.9473 134.582 40.8008 134.336 40.6367C134.195 40.7891 134.066 40.9707 133.949 41.1816C133.844 41.3926 133.791 41.627 133.791 41.8848C133.791 42.2246 133.938 42.5059 134.23 42.7285C134.535 42.9395 134.957 43.0566 135.496 43.0801L139.311 43.2207C140.201 43.2559 140.992 43.3848 141.684 43.6074C142.387 43.8184 142.973 44.123 143.441 44.5215C143.922 44.9082 144.285 45.377 144.531 45.9277C144.789 46.4785 144.918 47.1055 144.918 47.8086C144.918 48.582 144.748 49.3086 144.408 49.9883C144.068 50.6797 143.559 51.2773 142.879 51.7812C142.199 52.2852 141.344 52.6836 140.312 52.9766C139.293 53.2695 138.098 53.416 136.727 53.416C135.391 53.416 134.248 53.3105 133.299 53.0996C132.361 52.8887 131.588 52.5957 130.979 52.2207C130.381 51.8457 129.941 51.3945 129.66 50.8672C129.391 50.3516 129.256 49.7832 129.256 49.1621C129.256 48.7754 129.303 48.4062 129.396 48.0547C129.502 47.7031 129.648 47.3633 129.836 47.0352C130.035 46.7188 130.275 46.4141 130.557 46.1211C130.838 45.8281 131.16 45.5469 131.523 45.2773C131.02 45.0078 130.627 44.6445 130.346 44.1875C130.076 43.7188 129.941 43.209 129.941 42.6582C129.941 41.9668 130.1 41.3398 130.416 40.7773C130.732 40.2031 131.143 39.6875 131.646 39.2305C131.236 38.8203 130.908 38.3281 130.662 37.7539C130.416 37.1797 130.293 36.4648 130.293 35.6094C130.293 34.6953 130.451 33.8809 130.768 33.166C131.096 32.4395 131.547 31.8301 132.121 31.3379C132.695 30.834 133.381 30.4531 134.178 30.1953C134.975 29.9258 135.854 29.791 136.814 29.791C137.307 29.791 137.775 29.8203 138.221 29.8789C138.678 29.9375 139.1 30.0195 139.486 30.125H144.461C144.66 30.125 144.818 30.2539 144.936 30.5117C145.064 30.7695 145.129 31.2031 145.129 31.8125ZM139.451 35.5215C139.451 34.6777 139.217 34.0215 138.748 33.5527C138.279 33.084 137.617 32.8496 136.762 32.8496C136.328 32.8496 135.947 32.9258 135.619 33.0781C135.291 33.2188 135.016 33.418 134.793 33.6758C134.582 33.9219 134.424 34.2148 134.318 34.5547C134.213 34.8828 134.16 35.2285 134.16 35.5918C134.16 36.3887 134.395 37.0215 134.863 37.4902C135.332 37.9473 135.982 38.1758 136.814 38.1758C137.26 38.1758 137.646 38.1055 137.975 37.9648C138.303 37.8242 138.572 37.6309 138.783 37.3848C139.006 37.1387 139.17 36.8574 139.275 36.541C139.393 36.2129 139.451 35.873 139.451 35.5215ZM140.488 48.0371C140.488 47.5098 140.277 47.1055 139.855 46.8242C139.434 46.543 138.854 46.3906 138.115 46.3672L134.969 46.2793C134.664 46.502 134.418 46.7188 134.23 46.9297C134.055 47.1289 133.908 47.3223 133.791 47.5098C133.686 47.6973 133.615 47.8789 133.58 48.0547C133.545 48.2305 133.527 48.4121 133.527 48.5996C133.527 49.1855 133.82 49.6309 134.406 49.9355C135.004 50.2402 135.842 50.3926 136.92 50.3926C137.588 50.3926 138.15 50.3223 138.607 50.1816C139.064 50.0527 139.434 49.877 139.715 49.6543C139.996 49.4316 140.195 49.1797 140.312 48.8984C140.43 48.6289 140.488 48.3418 140.488 48.0371ZM162.18 38.1055C162.18 38.6445 162.057 39.043 161.811 39.3008C161.576 39.5586 161.248 39.6875 160.826 39.6875H151.281C151.281 40.3555 151.357 40.9648 151.51 41.5156C151.674 42.0547 151.926 42.5176 152.266 42.9043C152.617 43.2793 153.062 43.5664 153.602 43.7656C154.152 43.9648 154.809 44.0645 155.57 44.0645C156.344 44.0645 157.023 44.0117 157.609 43.9062C158.195 43.7891 158.699 43.666 159.121 43.5371C159.555 43.3965 159.912 43.2734 160.193 43.168C160.475 43.0508 160.703 42.9922 160.879 42.9922C160.984 42.9922 161.072 43.0156 161.143 43.0625C161.213 43.0977 161.271 43.168 161.318 43.2734C161.365 43.3789 161.395 43.5312 161.406 43.7305C161.43 43.918 161.441 44.1582 161.441 44.4512C161.441 44.709 161.436 44.9316 161.424 45.1191C161.412 45.2949 161.395 45.4473 161.371 45.5762C161.348 45.7051 161.312 45.8164 161.266 45.9102C161.219 45.9922 161.154 46.0742 161.072 46.1562C161.002 46.2383 160.797 46.3496 160.457 46.4902C160.117 46.6309 159.684 46.7715 159.156 46.9121C158.629 47.041 158.025 47.1523 157.346 47.2461C156.666 47.3516 155.939 47.4043 155.166 47.4043C153.771 47.4043 152.547 47.2285 151.492 46.877C150.449 46.5254 149.576 45.9922 148.873 45.2773C148.17 44.5625 147.643 43.6602 147.291 42.5703C146.951 41.4805 146.781 40.2031 146.781 38.7383C146.781 37.3438 146.963 36.0898 147.326 34.9766C147.689 33.8516 148.217 32.9023 148.908 32.1289C149.6 31.3438 150.438 30.7461 151.422 30.3359C152.418 29.9258 153.537 29.7207 154.779 29.7207C156.092 29.7207 157.211 29.9141 158.137 30.3008C159.074 30.6875 159.842 31.2266 160.439 31.918C161.037 32.5977 161.477 33.4062 161.758 34.3438C162.039 35.2812 162.18 36.3008 162.18 37.4023V38.1055ZM157.891 36.8398C157.926 35.5977 157.674 34.625 157.135 33.9219C156.607 33.207 155.787 32.8496 154.674 32.8496C154.111 32.8496 153.619 32.9551 153.197 33.166C152.787 33.377 152.441 33.6641 152.16 34.0273C151.891 34.3789 151.68 34.8008 151.527 35.293C151.387 35.7734 151.305 36.2891 151.281 36.8398H157.891ZM175.908 32.1816C175.908 32.6035 175.896 32.9492 175.873 33.2188C175.85 33.4883 175.814 33.6992 175.768 33.8516C175.721 34.0039 175.656 34.1094 175.574 34.168C175.504 34.2266 175.41 34.2559 175.293 34.2559C175.199 34.2559 175.094 34.2383 174.977 34.2031C174.859 34.1562 174.725 34.1094 174.572 34.0625C174.432 34.0156 174.273 33.9746 174.098 33.9395C173.922 33.8926 173.729 33.8691 173.518 33.8691C173.271 33.8691 173.025 33.9219 172.779 34.0273C172.533 34.1211 172.275 34.2734 172.006 34.4844C171.748 34.6953 171.473 34.9766 171.18 35.3281C170.898 35.6797 170.594 36.1133 170.266 36.6289V46.4023C170.266 46.5195 170.23 46.625 170.16 46.7188C170.09 46.8008 169.967 46.8711 169.791 46.9297C169.627 46.9883 169.404 47.0293 169.123 47.0527C168.842 47.0879 168.484 47.1055 168.051 47.1055C167.617 47.1055 167.26 47.0879 166.979 47.0527C166.697 47.0293 166.469 46.9883 166.293 46.9297C166.129 46.8711 166.012 46.8008 165.941 46.7188C165.871 46.625 165.836 46.5195 165.836 46.4023V30.7227C165.836 30.6055 165.865 30.5059 165.924 30.4238C165.982 30.3301 166.088 30.2539 166.24 30.1953C166.393 30.1367 166.586 30.0957 166.82 30.0723C167.066 30.0371 167.371 30.0195 167.734 30.0195C168.109 30.0195 168.42 30.0371 168.666 30.0723C168.912 30.0957 169.1 30.1367 169.229 30.1953C169.369 30.2539 169.469 30.3301 169.527 30.4238C169.586 30.5059 169.615 30.6055 169.615 30.7227V32.6738C170.025 32.0879 170.412 31.6074 170.775 31.2324C171.139 30.8457 171.484 30.541 171.812 30.3184C172.141 30.0957 172.469 29.9434 172.797 29.8613C173.125 29.7676 173.453 29.7207 173.781 29.7207C173.934 29.7207 174.098 29.7324 174.273 29.7559C174.449 29.7676 174.631 29.7969 174.818 29.8438C175.006 29.8789 175.17 29.9258 175.311 29.9844C175.451 30.0312 175.551 30.084 175.609 30.1426C175.68 30.2012 175.727 30.2656 175.75 30.3359C175.785 30.4062 175.814 30.5059 175.838 30.6348C175.861 30.752 175.879 30.9336 175.891 31.1797C175.902 31.4258 175.908 31.7598 175.908 32.1816Z" fill="#1A202C"/>
</g>
<defs>
<filter id="filter0_b" x="-2.4375" y="1.46875" width="47.875" height="50.5312" filterUnits="userSpaceOnUse" color-interpolation-filters="sRGB">
<feFlood flood-opacity="0" result="BackgroundImageFix"/>
<feGaussianBlur in="BackgroundImage" stdDeviation="2"/>
<feComposite in2="SourceAlpha" operator="in" result="effect1_backgroundBlur"/>
<feBlend mode="normal" in="SourceGraphic" in2="effect1_backgroundBlur" result="shape"/>
</filter>
<filter id="filter1_b" x="42.7969" y="25.7207" width="137.111" height="31.6953" filterUnits="userSpaceOnUse" color-interpolation-filters="sRGB">
<feFlood flood-opacity="0" result="BackgroundImageFix"/>
<feGaussianBlur in="BackgroundImage" stdDeviation="2"/>
<feComposite in2="SourceAlpha" operator="in" result="effect1_backgroundBlur"/>
<feBlend mode="normal" in="SourceGraphic" in2="effect1_backgroundBlur" result="shape"/>
</filter>
</defs>
</svg>
